<mxfile host="app.diagrams.net" modified="2021-08-17T08:59:40.620Z" agent="5.0 (Macintosh; Intel Mac OS X 10_15_7) AppleWebKit/537.36 (KHTML, like Gecko) Chrome/86.0.4240.193 Safari/537.36" etag="W5eNmf7P11IrBBsqNJ25" version="14.9.6" type="github">
  <diagram id="qf3aK_CPKDqACigrtI_M" name="Page-1">
    <mxGraphModel dx="946" dy="536" grid="1" gridSize="10" guides="1" tooltips="1" connect="1" arrows="1" fold="1" page="1" pageScale="1" pageWidth="827" pageHeight="1169" math="0" shadow="0">
      <root>
        <mxCell id="0" />
        <mxCell id="1" parent="0" />
        <mxCell id="ORsu_BjRNeNJkyaj8qCv-28" style="rounded=0;orthogonalLoop=1;jettySize=auto;html=1;exitX=0.5;exitY=1;exitDx=0;exitDy=0;entryX=0.5;entryY=0;entryDx=0;entryDy=0;fillColor=#dae8fc;strokeColor=#6c8ebf;" edge="1" parent="1" source="ORsu_BjRNeNJkyaj8qCv-1" target="ORsu_BjRNeNJkyaj8qCv-12">
          <mxGeometry relative="1" as="geometry" />
        </mxCell>
        <mxCell id="ORsu_BjRNeNJkyaj8qCv-29" style="edgeStyle=none;rounded=0;orthogonalLoop=1;jettySize=auto;html=1;exitX=0.5;exitY=1;exitDx=0;exitDy=0;entryX=0.5;entryY=0;entryDx=0;entryDy=0;fillColor=#dae8fc;strokeColor=#6c8ebf;" edge="1" parent="1" source="ORsu_BjRNeNJkyaj8qCv-1" target="ORsu_BjRNeNJkyaj8qCv-13">
          <mxGeometry relative="1" as="geometry" />
        </mxCell>
        <mxCell id="ORsu_BjRNeNJkyaj8qCv-30" style="edgeStyle=none;rounded=0;orthogonalLoop=1;jettySize=auto;html=1;exitX=0.5;exitY=1;exitDx=0;exitDy=0;entryX=0.5;entryY=0;entryDx=0;entryDy=0;fillColor=#dae8fc;strokeColor=#6c8ebf;" edge="1" parent="1" source="ORsu_BjRNeNJkyaj8qCv-1" target="ORsu_BjRNeNJkyaj8qCv-14">
          <mxGeometry relative="1" as="geometry" />
        </mxCell>
        <mxCell id="ORsu_BjRNeNJkyaj8qCv-31" style="edgeStyle=none;rounded=0;orthogonalLoop=1;jettySize=auto;html=1;exitX=0.5;exitY=1;exitDx=0;exitDy=0;entryX=0.5;entryY=0;entryDx=0;entryDy=0;fillColor=#dae8fc;strokeColor=#6c8ebf;" edge="1" parent="1" source="ORsu_BjRNeNJkyaj8qCv-1" target="ORsu_BjRNeNJkyaj8qCv-15">
          <mxGeometry relative="1" as="geometry" />
        </mxCell>
        <mxCell id="ORsu_BjRNeNJkyaj8qCv-1" value="*，*，*，*" style="rounded=1;whiteSpace=wrap;html=1;fillColor=#dae8fc;strokeColor=#6c8ebf;" vertex="1" parent="1">
          <mxGeometry x="310" y="130" width="90" height="50" as="geometry" />
        </mxCell>
        <mxCell id="ORsu_BjRNeNJkyaj8qCv-32" style="edgeStyle=none;rounded=0;orthogonalLoop=1;jettySize=auto;html=1;exitX=0.5;exitY=1;exitDx=0;exitDy=0;entryX=0.5;entryY=0;entryDx=0;entryDy=0;fillColor=#dae8fc;strokeColor=#6c8ebf;" edge="1" parent="1" source="ORsu_BjRNeNJkyaj8qCv-12" target="ORsu_BjRNeNJkyaj8qCv-16">
          <mxGeometry relative="1" as="geometry" />
        </mxCell>
        <mxCell id="ORsu_BjRNeNJkyaj8qCv-33" style="edgeStyle=none;rounded=0;orthogonalLoop=1;jettySize=auto;html=1;exitX=0.5;exitY=1;exitDx=0;exitDy=0;entryX=0.5;entryY=0;entryDx=0;entryDy=0;fillColor=#dae8fc;strokeColor=#6c8ebf;" edge="1" parent="1" source="ORsu_BjRNeNJkyaj8qCv-12" target="ORsu_BjRNeNJkyaj8qCv-17">
          <mxGeometry relative="1" as="geometry" />
        </mxCell>
        <mxCell id="ORsu_BjRNeNJkyaj8qCv-12" value="0，*，*，*" style="rounded=1;whiteSpace=wrap;html=1;fillColor=#dae8fc;strokeColor=#6c8ebf;" vertex="1" parent="1">
          <mxGeometry x="140" y="200" width="90" height="50" as="geometry" />
        </mxCell>
        <mxCell id="ORsu_BjRNeNJkyaj8qCv-34" style="edgeStyle=none;rounded=0;orthogonalLoop=1;jettySize=auto;html=1;exitX=0.5;exitY=1;exitDx=0;exitDy=0;entryX=0.5;entryY=0;entryDx=0;entryDy=0;fillColor=#dae8fc;strokeColor=#6c8ebf;" edge="1" parent="1" source="ORsu_BjRNeNJkyaj8qCv-13" target="ORsu_BjRNeNJkyaj8qCv-18">
          <mxGeometry relative="1" as="geometry" />
        </mxCell>
        <mxCell id="ORsu_BjRNeNJkyaj8qCv-13" value="1，*，*，*" style="rounded=1;whiteSpace=wrap;html=1;fillColor=#dae8fc;strokeColor=#6c8ebf;" vertex="1" parent="1">
          <mxGeometry x="260" y="200" width="90" height="50" as="geometry" />
        </mxCell>
        <mxCell id="ORsu_BjRNeNJkyaj8qCv-36" style="edgeStyle=none;rounded=0;orthogonalLoop=1;jettySize=auto;html=1;exitX=0.5;exitY=1;exitDx=0;exitDy=0;entryX=0.5;entryY=0;entryDx=0;entryDy=0;fillColor=#dae8fc;strokeColor=#6c8ebf;" edge="1" parent="1" source="ORsu_BjRNeNJkyaj8qCv-14" target="ORsu_BjRNeNJkyaj8qCv-19">
          <mxGeometry relative="1" as="geometry" />
        </mxCell>
        <mxCell id="ORsu_BjRNeNJkyaj8qCv-14" value="2，*，*，*" style="rounded=1;whiteSpace=wrap;html=1;fillColor=#dae8fc;strokeColor=#6c8ebf;" vertex="1" parent="1">
          <mxGeometry x="370" y="200" width="90" height="50" as="geometry" />
        </mxCell>
        <mxCell id="ORsu_BjRNeNJkyaj8qCv-37" style="edgeStyle=none;rounded=0;orthogonalLoop=1;jettySize=auto;html=1;exitX=0.5;exitY=1;exitDx=0;exitDy=0;entryX=0.5;entryY=0;entryDx=0;entryDy=0;fillColor=#dae8fc;strokeColor=#6c8ebf;" edge="1" parent="1" source="ORsu_BjRNeNJkyaj8qCv-15" target="ORsu_BjRNeNJkyaj8qCv-20">
          <mxGeometry relative="1" as="geometry" />
        </mxCell>
        <mxCell id="ORsu_BjRNeNJkyaj8qCv-43" style="edgeStyle=none;rounded=0;orthogonalLoop=1;jettySize=auto;html=1;exitX=0.5;exitY=1;exitDx=0;exitDy=0;entryX=0.5;entryY=0;entryDx=0;entryDy=0;fillColor=#dae8fc;strokeColor=#6c8ebf;" edge="1" parent="1" source="ORsu_BjRNeNJkyaj8qCv-15" target="ORsu_BjRNeNJkyaj8qCv-21">
          <mxGeometry relative="1" as="geometry" />
        </mxCell>
        <mxCell id="ORsu_BjRNeNJkyaj8qCv-15" value="3，*，*，*" style="rounded=1;whiteSpace=wrap;html=1;fillColor=#dae8fc;strokeColor=#6c8ebf;" vertex="1" parent="1">
          <mxGeometry x="480" y="200" width="90" height="50" as="geometry" />
        </mxCell>
        <mxCell id="ORsu_BjRNeNJkyaj8qCv-16" value="0，2，*，*" style="rounded=1;whiteSpace=wrap;html=1;fillColor=#dae8fc;strokeColor=#6c8ebf;" vertex="1" parent="1">
          <mxGeometry x="30" y="280" width="90" height="50" as="geometry" />
        </mxCell>
        <mxCell id="ORsu_BjRNeNJkyaj8qCv-35" style="edgeStyle=none;rounded=0;orthogonalLoop=1;jettySize=auto;html=1;exitX=0.5;exitY=1;exitDx=0;exitDy=0;entryX=0.5;entryY=0;entryDx=0;entryDy=0;fillColor=#dae8fc;strokeColor=#6c8ebf;" edge="1" parent="1" source="ORsu_BjRNeNJkyaj8qCv-17" target="ORsu_BjRNeNJkyaj8qCv-26">
          <mxGeometry relative="1" as="geometry" />
        </mxCell>
        <mxCell id="ORsu_BjRNeNJkyaj8qCv-17" value="0，3，*，*" style="rounded=1;whiteSpace=wrap;html=1;fillColor=#dae8fc;strokeColor=#6c8ebf;" vertex="1" parent="1">
          <mxGeometry x="140" y="280" width="90" height="50" as="geometry" />
        </mxCell>
        <mxCell id="ORsu_BjRNeNJkyaj8qCv-38" style="edgeStyle=none;rounded=0;orthogonalLoop=1;jettySize=auto;html=1;exitX=0.5;exitY=1;exitDx=0;exitDy=0;entryX=0.5;entryY=0;entryDx=0;entryDy=0;fillColor=#dae8fc;strokeColor=#6c8ebf;" edge="1" parent="1" source="ORsu_BjRNeNJkyaj8qCv-18" target="ORsu_BjRNeNJkyaj8qCv-22">
          <mxGeometry relative="1" as="geometry" />
        </mxCell>
        <mxCell id="ORsu_BjRNeNJkyaj8qCv-18" value="1，3，*，*" style="rounded=1;whiteSpace=wrap;html=1;fillColor=#dae8fc;strokeColor=#6c8ebf;" vertex="1" parent="1">
          <mxGeometry x="260" y="280" width="90" height="50" as="geometry" />
        </mxCell>
        <mxCell id="ORsu_BjRNeNJkyaj8qCv-40" style="edgeStyle=none;rounded=0;orthogonalLoop=1;jettySize=auto;html=1;exitX=0.5;exitY=1;exitDx=0;exitDy=0;entryX=0.5;entryY=0;entryDx=0;entryDy=0;fillColor=#dae8fc;strokeColor=#6c8ebf;" edge="1" parent="1" source="ORsu_BjRNeNJkyaj8qCv-19" target="ORsu_BjRNeNJkyaj8qCv-24">
          <mxGeometry relative="1" as="geometry" />
        </mxCell>
        <mxCell id="ORsu_BjRNeNJkyaj8qCv-19" value="2，0，*，*" style="rounded=1;whiteSpace=wrap;html=1;fillColor=#dae8fc;strokeColor=#6c8ebf;" vertex="1" parent="1">
          <mxGeometry x="370" y="280" width="90" height="50" as="geometry" />
        </mxCell>
        <mxCell id="ORsu_BjRNeNJkyaj8qCv-42" style="edgeStyle=none;rounded=0;orthogonalLoop=1;jettySize=auto;html=1;exitX=0.5;exitY=1;exitDx=0;exitDy=0;entryX=0.5;entryY=0;entryDx=0;entryDy=0;fillColor=#dae8fc;strokeColor=#6c8ebf;" edge="1" parent="1" source="ORsu_BjRNeNJkyaj8qCv-20" target="ORsu_BjRNeNJkyaj8qCv-27">
          <mxGeometry relative="1" as="geometry" />
        </mxCell>
        <mxCell id="ORsu_BjRNeNJkyaj8qCv-20" value="3，0，*，*" style="rounded=1;whiteSpace=wrap;html=1;fillColor=#dae8fc;strokeColor=#6c8ebf;" vertex="1" parent="1">
          <mxGeometry x="480" y="280" width="90" height="50" as="geometry" />
        </mxCell>
        <mxCell id="ORsu_BjRNeNJkyaj8qCv-21" value="3，1，*，*" style="rounded=1;whiteSpace=wrap;html=1;fillColor=#dae8fc;strokeColor=#6c8ebf;" vertex="1" parent="1">
          <mxGeometry x="590" y="280" width="90" height="50" as="geometry" />
        </mxCell>
        <mxCell id="ORsu_BjRNeNJkyaj8qCv-39" style="edgeStyle=none;rounded=0;orthogonalLoop=1;jettySize=auto;html=1;exitX=0.5;exitY=1;exitDx=0;exitDy=0;entryX=0.5;entryY=0;entryDx=0;entryDy=0;fillColor=#dae8fc;strokeColor=#6c8ebf;" edge="1" parent="1" source="ORsu_BjRNeNJkyaj8qCv-22" target="ORsu_BjRNeNJkyaj8qCv-23">
          <mxGeometry relative="1" as="geometry" />
        </mxCell>
        <mxCell id="ORsu_BjRNeNJkyaj8qCv-22" value="1，3，0，*" style="rounded=1;whiteSpace=wrap;html=1;fillColor=#dae8fc;strokeColor=#6c8ebf;" vertex="1" parent="1">
          <mxGeometry x="260" y="350" width="90" height="50" as="geometry" />
        </mxCell>
        <mxCell id="ORsu_BjRNeNJkyaj8qCv-23" value="1，3，0，2" style="rounded=1;whiteSpace=wrap;html=1;fillColor=#dae8fc;strokeColor=#6c8ebf;" vertex="1" parent="1">
          <mxGeometry x="260" y="420" width="90" height="50" as="geometry" />
        </mxCell>
        <mxCell id="ORsu_BjRNeNJkyaj8qCv-41" style="edgeStyle=none;rounded=0;orthogonalLoop=1;jettySize=auto;html=1;exitX=0.5;exitY=1;exitDx=0;exitDy=0;entryX=0.5;entryY=0;entryDx=0;entryDy=0;fillColor=#dae8fc;strokeColor=#6c8ebf;" edge="1" parent="1" source="ORsu_BjRNeNJkyaj8qCv-24" target="ORsu_BjRNeNJkyaj8qCv-25">
          <mxGeometry relative="1" as="geometry" />
        </mxCell>
        <mxCell id="ORsu_BjRNeNJkyaj8qCv-24" value="2，0，3，*" style="rounded=1;whiteSpace=wrap;html=1;fillColor=#dae8fc;strokeColor=#6c8ebf;" vertex="1" parent="1">
          <mxGeometry x="370" y="350" width="90" height="50" as="geometry" />
        </mxCell>
        <mxCell id="ORsu_BjRNeNJkyaj8qCv-25" value="2，0，3，1" style="rounded=1;whiteSpace=wrap;html=1;fillColor=#dae8fc;strokeColor=#6c8ebf;" vertex="1" parent="1">
          <mxGeometry x="370" y="420" width="90" height="50" as="geometry" />
        </mxCell>
        <mxCell id="ORsu_BjRNeNJkyaj8qCv-26" value="0，3，1，*" style="rounded=1;whiteSpace=wrap;html=1;fillColor=#dae8fc;strokeColor=#6c8ebf;" vertex="1" parent="1">
          <mxGeometry x="140" y="350" width="90" height="50" as="geometry" />
        </mxCell>
        <mxCell id="ORsu_BjRNeNJkyaj8qCv-27" value="3，0，2，*" style="rounded=1;whiteSpace=wrap;html=1;fillColor=#dae8fc;strokeColor=#6c8ebf;" vertex="1" parent="1">
          <mxGeometry x="480" y="350" width="90" height="50" as="geometry" />
        </mxCell>
      </root>
    </mxGraphModel>
  </diagram>
</mxfile>
